{
  "asset": {
    "version": "2.0",
    "generator": "THREE.GLTFExporter"
  },
  "scenes": [
    {
      "name": "Scene",
      "nodes": [
        4
      ]
    }
  ],
  "scene": 0,
  "nodes": [
    {
      "matrix": [
        1,
        0,
        0,
        0,
        0,
        1,
        0,
        0,
        0,
        0,
        1,
        0,
        0.17051969086578225,
        0,
        0,
        1
      ],
      "name": "Unioncmglb",
      "extras": {
        "name": "Unioncm.glb"
      }
    },
    {
      "name": "Unionglb",
      "extras": {
        "name": "Union.glb"
      }
    },
    {
      "name": "Building",
      "extras": {
        "name": "Building"
      },
      "mesh": 0
    },
    {
      "name": "Unionscaledmglb",
      "extras": {
        "name": "Unionscaledm.glb"
      },
      "children": [
        2
      ]
    },
    {
      "name": "scene.glb",
      "children": [
        0,
        1,
        3
      ]
    }
  ],
  "bufferViews": [
    {
      "buffer": 0,
      "byteOffset": 0,
      "byteLength": 89280,
      "target": 34962,
      "byteStride": 12
    },
    {
      "buffer": 0,
      "byteOffset": 89280,
      "byteLength": 89280,
      "target": 34962,
      "byteStride": 12
    },
    {
      "buffer": 0,
      "byteOffset": 178560,
      "byteLength": 59520,
      "target": 34962,
      "byteStride": 8
    },
    {
      "buffer": 0,
      "byteOffset": 238080,
      "byteLength": 88416,
      "target": 34963
    }
  ],
  "buffers": [
    {
      "byteLength": 326496,
      "uri": "data:application/octet-stream;base64,"
    }
  ],
  "accessors": [
    {
      "bufferView": 0,
      "componentType": 5126,
      "count": 7440,
      "max": [
        6.521772861480713,
        10.265782356262207,
        6.179291725158691
      ],
      "min": [
        -6.569521903991699,
        -0.053409069776535034,
        -6.4471116065979
      ],
      "type": "VEC3"
    },
    {
      "bufferView": 1,
      "componentType": 5126,
      "count": 7440,
      "max": [
        0.9999837875366211,
        0.9999233484268188,
        0.9995688796043396
      ],
      "min": [
        -0.9988916516304016,
        -0.9986261129379272,
        -0.9995985627174377
      ],
      "type": "VEC3"
    },
    {
      "bufferView": 2,
      "componentType": 5126,
      "count": 7440,
      "max": [
        0,
        1
      ],
      "min": [
        0,
        1
      ],
      "type": "VEC2"
    },
    {
      "bufferView": 3,
      "componentType": 5123,
      "count": 44208,
      "max": [
        7439
      ],
      "min": [
        0
      ],
      "type": "SCALAR"
    }
  ],
  "materials": [
    {
      "pbrMetallicRoughness": {
        "metallicFactor": 1,
        "roughnessFactor": 1
      },
      "doubleSided": true,
      "name": "Glass Gradient"
    }
  ],
  "meshes": [
    {
      "primitives": [
        {
          "mode": 4,
          "attributes": {
            "POSITION": 0,
            "NORMAL": 1,
            "TEXCOORD_0": 2
          },
          "indices": 3,
          "material": 0
        }
      ]
    }
  ]
}