{
	"asset":{
		"generator":"Khronos glTF Blender I/O v3.6.27",
		"version":"2.0"
	},
	"extensionsUsed":[
		"KHR_materials_emissive_strength",
		"KHR_materials_transmission",
		"KHR_materials_ior"
	],
	"scene":0,
	"scenes":[
		{
			"name":"Scene",
			"nodes":[
				0,
				1,
				2,
				3,
				4,
				5,
				6,
				7
			]
		}
	],
	"nodes":[
		{
			"mesh":0,
			"name":"Center.001",
			"scale":[
				0.07000001519918442,
				0.07000001519918442,
				0.07000001519918442
			],
			"translation":[
				3.2970662117004395,
				0,
				-1.7547366619110107
			]
		},
		{
			"mesh":1,
			"name":"Center.002",
			"scale":[
				0.07000001519918442,
				0.07000001519918442,
				0.07000001519918442
			],
			"translation":[
				0.06313776969909668,
				0,
				3.8020710945129395
			]
		},
		{
			"mesh":2,
			"name":"Floor",
			"scale":[
				0.10000002384185791,
				0.10000002384185791,
				0.10000002384185791
			],
			"translation":[
				0,
				0.0013789264485239983,
				0
			]
		},
		{
			"mesh":3,
			"name":"Windows",
			"scale":[
				0.10000002384185791,
				0.10000002384185791,
				0.10000002384185791
			],
			"translation":[
				0.0004862784408032894,
				1.835306167602539,
				-7.997894287109375
			]
		},
		{
			"mesh":4,
			"name":"Outer_wall",
			"scale":[
				0.10000002384185791,
				0.10000002384185791,
				0.10000002384185791
			],
			"translation":[
				0,
				0.0013789264485239983,
				0
			]
		},
		{
			"mesh":5,
			"name":"Lights",
			"scale":[
				0.10000002384185791,
				0.10000002384185791,
				0.10000002384185791
			],
			"translation":[
				0,
				0.0013789264485239983,
				0
			]
		},
		{
			"mesh":6,
			"name":"Inner_walls",
			"scale":[
				0.10000002384185791,
				0.10000002384185791,
				0.10000002384185791
			],
			"translation":[
				0,
				0.0013789264485239983,
				0
			]
		},
		{
			"mesh":7,
			"name":"Center",
			"scale":[
				0.07000001519918442,
				0.07000001519918442,
				0.07000001519918442
			],
			"translation":[
				-2.848393440246582,
				0,
				-1.6473793983459473
			]
		}
	],
	"materials":[
		{
			"doubleSided":true,
			"name":"White.002",
			"pbrMetallicRoughness":{
				"baseColorFactor":[
					0.800000011920929,
					0.7192484140396118,
					0.6416944861412048,
					1
				],
				"metallicFactor":0,
				"roughnessFactor":0.7018348574638367
			}
		},
		{
			"doubleSided":true,
			"emissiveFactor":[
				1,
				1,
				1
			],
			"extensions":{
				"KHR_materials_emissive_strength":{
					"emissiveStrength":3
				}
			},
			"name":"Light.002",
			"pbrMetallicRoughness":{
				"metallicFactor":0,
				"roughnessFactor":0.5
			}
		},
		{
			"doubleSided":true,
			"name":"Dented Rose",
			"pbrMetallicRoughness":{}
		},
		{
			"doubleSided":true,
			"name":"White.003",
			"pbrMetallicRoughness":{
				"baseColorFactor":[
					0.800000011920929,
					0.7192484140396118,
					0.6416944861412048,
					1
				],
				"metallicFactor":0,
				"roughnessFactor":0.7018348574638367
			}
		},
		{
			"doubleSided":true,
			"emissiveFactor":[
				1,
				1,
				1
			],
			"extensions":{
				"KHR_materials_emissive_strength":{
					"emissiveStrength":3
				}
			},
			"name":"Light.003",
			"pbrMetallicRoughness":{
				"metallicFactor":0,
				"roughnessFactor":0.5
			}
		},
		{
			"doubleSided":true,
			"name":"Cross_WoodenFlooring 1",
			"pbrMetallicRoughness":{}
		},
		{
			"doubleSided":true,
			"name":"Gold",
			"pbrMetallicRoughness":{
				"baseColorFactor":[
					0.4769839942455292,
					0.1691409945487976,
					0.08510799705982208,
					1
				],
				"roughnessFactor":0.10000000149011612
			}
		},
		{
			"alphaMode":"BLEND",
			"doubleSided":true,
			"extensions":{
				"KHR_materials_transmission":{
					"transmissionFactor":1
				},
				"KHR_materials_ior":{
					"ior":0
				}
			},
			"name":"Glass",
			"pbrMetallicRoughness":{
				"baseColorFactor":[
					0.40196332335472107,
					0.40196332335472107,
					0.40196332335472107,
					0.15596330165863037
				],
				"roughnessFactor":0
			}
		},
		{
			"doubleSided":true,
			"name":"White",
			"pbrMetallicRoughness":{
				"baseColorFactor":[
					0.800000011920929,
					0.7192484140396118,
					0.6416944861412048,
					1
				],
				"metallicFactor":0,
				"roughnessFactor":0.7018348574638367
			}
		},
		{
			"doubleSided":true,
			"emissiveFactor":[
				1,
				1,
				1
			],
			"extensions":{
				"KHR_materials_emissive_strength":{
					"emissiveStrength":3
				}
			},
			"name":"Light",
			"pbrMetallicRoughness":{
				"metallicFactor":0,
				"roughnessFactor":0.5
			}
		},
		{
			"doubleSided":true,
			"name":"Surface 2",
			"pbrMetallicRoughness":{}
		}
	],
	"meshes":[
		{
			"name":"Circle.010",
			"primitives":[
				{
					"attributes":{
						"POSITION":0,
						"NORMAL":1,
						"TEXCOORD_0":2
					},
					"indices":3,
					"material":0
				},
				{
					"attributes":{
						"POSITION":4,
						"NORMAL":5,
						"TEXCOORD_0":6
					},
					"indices":7,
					"material":1
				},
				{
					"attributes":{
						"POSITION":8,
						"NORMAL":9,
						"TEXCOORD_0":10
					},
					"indices":11,
					"material":2
				}
			]
		},
		{
			"name":"Circle.011",
			"primitives":[
				{
					"attributes":{
						"POSITION":12,
						"NORMAL":13,
						"TEXCOORD_0":14
					},
					"indices":3,
					"material":3
				},
				{
					"attributes":{
						"POSITION":15,
						"NORMAL":16,
						"TEXCOORD_0":17
					},
					"indices":7,
					"material":4
				},
				{
					"attributes":{
						"POSITION":18,
						"NORMAL":19,
						"TEXCOORD_0":20
					},
					"indices":11,
					"material":2
				}
			]
		},
		{
			"name":"Circle.001",
			"primitives":[
				{
					"attributes":{
						"POSITION":21,
						"NORMAL":22,
						"TEXCOORD_0":23
					},
					"indices":24,
					"material":5
				}
			]
		},
		{
			"name":"Circle.002",
			"primitives":[
				{
					"attributes":{
						"POSITION":25,
						"NORMAL":26,
						"TEXCOORD_0":27
					},
					"indices":28,
					"material":6
				},
				{
					"attributes":{
						"POSITION":29,
						"NORMAL":30,
						"TEXCOORD_0":31
					},
					"indices":32,
					"material":7
				}
			]
		},
		{
			"name":"Circle.003",
			"primitives":[
				{
					"attributes":{
						"POSITION":33,
						"NORMAL":34,
						"TEXCOORD_0":35
					},
					"indices":36,
					"material":8
				},
				{
					"attributes":{
						"POSITION":37,
						"NORMAL":38,
						"TEXCOORD_0":39
					},
					"indices":40,
					"material":9
				}
			]
		},
		{
			"name":"Circle.005",
			"primitives":[
				{
					"attributes":{
						"POSITION":41,
						"NORMAL":42,
						"TEXCOORD_0":43
					},
					"indices":44,
					"material":8
				},
				{
					"attributes":{
						"POSITION":45,
						"NORMAL":46,
						"TEXCOORD_0":47
					},
					"indices":48,
					"material":9
				}
			]
		},
		{
			"name":"Circle.008",
			"primitives":[
				{
					"attributes":{
						"POSITION":49,
						"NORMAL":50,
						"TEXCOORD_0":51
					},
					"indices":52,
					"material":10
				},
				{
					"attributes":{
						"POSITION":53,
						"NORMAL":54,
						"TEXCOORD_0":55
					},
					"indices":56,
					"material":9
				}
			]
		},
		{
			"name":"Circle.009",
			"primitives":[
				{
					"attributes":{
						"POSITION":57,
						"NORMAL":58,
						"TEXCOORD_0":59
					},
					"indices":3,
					"material":8
				},
				{
					"attributes":{
						"POSITION":60,
						"NORMAL":61,
						"TEXCOORD_0":62
					},
					"indices":7,
					"material":9
				},
				{
					"attributes":{
						"POSITION":63,
						"NORMAL":64,
						"TEXCOORD_0":65
					},
					"indices":11,
					"material":2
				}
			]
		}
	],
	"accessors":[
		{
			"bufferView":0,
			"componentType":5126,
			"count":1416,
			"max":[
				7.296253204345703,
				15.96051025390625,
				4.820291996002197
			],
			"min":[
				-7.485229015350342,
				0.07860617339611053,
				-8.33695125579834
			],
			"type":"VEC3"
		},
		{
			"bufferView":1,
			"componentType":5126,
			"count":1416,
			"type":"VEC3"
		},
		{
			"bufferView":2,
			"componentType":5126,
			"count":1416,
			"type":"VEC2"
		},
		{
			"bufferView":3,
			"componentType":5123,
			"count":7470,
			"type":"SCALAR"
		},
		{
			"bufferView":4,
			"componentType":5126,
			"count":24,
			"max":[
				0.9596538543701172,
				13.959218978881836,
				0.6503849029541016
			],
			"min":[
				-0.9596595764160156,
				6.632188320159912,
				-1.0117912292480469
			],
			"type":"VEC3"
		},
		{
			"bufferView":5,
			"componentType":5126,
			"count":24,
			"type":"VEC3"
		},
		{
			"bufferView":6,
			"componentType":5126,
			"count":24,
			"type":"VEC2"
		},
		{
			"bufferView":7,
			"componentType":5123,
			"count":72,
			"type":"SCALAR"
		},
		{
			"bufferView":8,
			"componentType":5126,
			"count":2229,
			"max":[
				7.29625129699707,
				14.647659301757812,
				4.820289611816406
			],
			"min":[
				-7.485231399536133,
				9.059906005859375e-05,
				-8.336954116821289
			],
			"type":"VEC3"
		},
		{
			"bufferView":9,
			"componentType":5126,
			"count":2229,
			"type":"VEC3"
		},
		{
			"bufferView":10,
			"componentType":5126,
			"count":2229,
			"type":"VEC2"
		},
		{
			"bufferView":11,
			"componentType":5123,
			"count":7668,
			"type":"SCALAR"
		},
		{
			"bufferView":12,
			"componentType":5126,
			"count":1416,
			"max":[
				7.296253204345703,
				15.96051025390625,
				4.820291996002197
			],
			"min":[
				-7.485229015350342,
				0.07860617339611053,
				-8.33695125579834
			],
			"type":"VEC3"
		},
		{
			"bufferView":13,
			"componentType":5126,
			"count":1416,
			"type":"VEC3"
		},
		{
			"bufferView":14,
			"componentType":5126,
			"count":1416,
			"type":"VEC2"
		},
		{
			"bufferView":15,
			"componentType":5126,
			"count":24,
			"max":[
				0.9596538543701172,
				13.959218978881836,
				0.6503849029541016
			],
			"min":[
				-0.9596595764160156,
				6.632188320159912,
				-1.0117912292480469
			],
			"type":"VEC3"
		},
		{
			"bufferView":16,
			"componentType":5126,
			"count":24,
			"type":"VEC3"
		},
		{
			"bufferView":17,
			"componentType":5126,
			"count":24,
			"type":"VEC2"
		},
		{
			"bufferView":18,
			"componentType":5126,
			"count":2229,
			"max":[
				7.29625129699707,
				14.647659301757812,
				4.820289611816406
			],
			"min":[
				-7.485231399536133,
				9.059906005859375e-05,
				-8.336954116821289
			],
			"type":"VEC3"
		},
		{
			"bufferView":19,
			"componentType":5126,
			"count":2229,
			"type":"VEC3"
		},
		{
			"bufferView":20,
			"componentType":5126,
			"count":2229,
			"type":"VEC2"
		},
		{
			"bufferView":21,
			"componentType":5126,
			"count":6,
			"max":[
				74.0958480834961,
				0.00019235287618357688,
				48.36692810058594
			],
			"min":[
				-74.10042572021484,
				8.675122080603614e-05,
				-79.97904968261719
			],
			"type":"VEC3"
		},
		{
			"bufferView":22,
			"componentType":5126,
			"count":6,
			"type":"VEC3"
		},
		{
			"bufferView":23,
			"componentType":5126,
			"count":6,
			"type":"VEC2"
		},
		{
			"bufferView":24,
			"componentType":5123,
			"count":12,
			"type":"SCALAR"
		},
		{
			"bufferView":25,
			"componentType":5126,
			"count":30368,
			"max":[
				74.30722045898438,
				9.570391654968262,
				128.47071838378906
			],
			"min":[
				-74.32181549072266,
				-18.338287353515625,
				-0.2500808835029602
			],
			"type":"VEC3"
		},
		{
			"bufferView":26,
			"componentType":5126,
			"count":30368,
			"type":"VEC3"
		},
		{
			"bufferView":27,
			"componentType":5126,
			"count":30368,
			"type":"VEC2"
		},
		{
			"bufferView":28,
			"componentType":5123,
			"count":131220,
			"type":"SCALAR"
		},
		{
			"bufferView":29,
			"componentType":5126,
			"count":63,
			"max":[
				74.22949981689453,
				9.520456314086914,
				128.42584228515625
			],
			"min":[
				-74.24409484863281,
				-18.338451385498047,
				-0.16033554077148438
			],
			"type":"VEC3"
		},
		{
			"bufferView":30,
			"componentType":5126,
			"count":63,
			"type":"VEC3"
		},
		{
			"bufferView":31,
			"componentType":5126,
			"count":63,
			"type":"VEC2"
		},
		{
			"bufferView":32,
			"componentType":5123,
			"count":165,
			"type":"SCALAR"
		},
		{
			"bufferView":33,
			"componentType":5126,
			"count":492,
			"max":[
				74.52887725830078,
				28.008546829223633,
				48.86692810058594
			],
			"min":[
				-74.5334243774414,
				8.637241262476891e-05,
				-80.22908020019531
			],
			"type":"VEC3"
		},
		{
			"bufferView":34,
			"componentType":5126,
			"count":492,
			"type":"VEC3"
		},
		{
			"bufferView":35,
			"componentType":5126,
			"count":492,
			"type":"VEC2"
		},
		{
			"bufferView":36,
			"componentType":5123,
			"count":1404,
			"type":"SCALAR"
		},
		{
			"bufferView":37,
			"componentType":5126,
			"count":42,
			"max":[
				74.09585571289062,
				0.2051382064819336,
				48.366737365722656
			],
			"min":[
				-74.10043334960938,
				0.2050642967224121,
				-79.97906494140625
			],
			"type":"VEC3"
		},
		{
			"bufferView":38,
			"componentType":5126,
			"count":42,
			"type":"VEC3"
		},
		{
			"bufferView":39,
			"componentType":5126,
			"count":42,
			"type":"VEC2"
		},
		{
			"bufferView":40,
			"componentType":5123,
			"count":108,
			"type":"SCALAR"
		},
		{
			"bufferView":41,
			"componentType":5126,
			"count":814,
			"max":[
				65.04544067382812,
				27.34235954284668,
				42.79643630981445
			],
			"min":[
				-65.04544830322266,
				27.183761596679688,
				-70.05596160888672
			],
			"type":"VEC3"
		},
		{
			"bufferView":42,
			"componentType":5126,
			"count":814,
			"type":"VEC3"
		},
		{
			"bufferView":43,
			"componentType":5126,
			"count":814,
			"type":"VEC2"
		},
		{
			"bufferView":44,
			"componentType":5123,
			"count":2376,
			"type":"SCALAR"
		},
		{
			"bufferView":45,
			"componentType":5126,
			"count":594,
			"max":[
				64.89556884765625,
				27.508502960205078,
				42.646202087402344
			],
			"min":[
				-64.89558410644531,
				27.183761596679688,
				-69.90609741210938
			],
			"type":"VEC3"
		},
		{
			"bufferView":46,
			"componentType":5126,
			"count":594,
			"type":"VEC3"
		},
		{
			"bufferView":47,
			"componentType":5126,
			"count":594,
			"type":"VEC2"
		},
		{
			"bufferView":48,
			"componentType":5123,
			"count":1728,
			"type":"SCALAR"
		},
		{
			"bufferView":49,
			"componentType":5126,
			"count":1128,
			"max":[
				58.32275390625,
				20.23177719116211,
				34.41196823120117
			],
			"min":[
				-58.32275390625,
				-0.013789267279207706,
				-67.13105010986328
			],
			"type":"VEC3"
		},
		{
			"bufferView":50,
			"componentType":5126,
			"count":1128,
			"type":"VEC3"
		},
		{
			"bufferView":51,
			"componentType":5126,
			"count":1128,
			"type":"VEC2"
		},
		{
			"bufferView":52,
			"componentType":5123,
			"count":3204,
			"type":"SCALAR"
		},
		{
			"bufferView":53,
			"componentType":5126,
			"count":432,
			"max":[
				58.322750091552734,
				0.20513343811035156,
				34.411964416503906
			],
			"min":[
				-58.322757720947266,
				0.20513343811035156,
				-67.13105773925781
			],
			"type":"VEC3"
		},
		{
			"bufferView":54,
			"componentType":5126,
			"count":432,
			"type":"VEC3"
		},
		{
			"bufferView":55,
			"componentType":5126,
			"count":432,
			"type":"VEC2"
		},
		{
			"bufferView":56,
			"componentType":5123,
			"count":1296,
			"type":"SCALAR"
		},
		{
			"bufferView":57,
			"componentType":5126,
			"count":1416,
			"max":[
				7.296253204345703,
				15.96051025390625,
				4.820291996002197
			],
			"min":[
				-7.485229015350342,
				0.07860617339611053,
				-8.33695125579834
			],
			"type":"VEC3"
		},
		{
			"bufferView":58,
			"componentType":5126,
			"count":1416,
			"type":"VEC3"
		},
		{
			"bufferView":59,
			"componentType":5126,
			"count":1416,
			"type":"VEC2"
		},
		{
			"bufferView":60,
			"componentType":5126,
			"count":24,
			"max":[
				0.9596538543701172,
				13.959218978881836,
				0.6503849029541016
			],
			"min":[
				-0.9596595764160156,
				6.632188320159912,
				-1.0117912292480469
			],
			"type":"VEC3"
		},
		{
			"bufferView":61,
			"componentType":5126,
			"count":24,
			"type":"VEC3"
		},
		{
			"bufferView":62,
			"componentType":5126,
			"count":24,
			"type":"VEC2"
		},
		{
			"bufferView":63,
			"componentType":5126,
			"count":2229,
			"max":[
				7.29625129699707,
				14.647659301757812,
				4.820289611816406
			],
			"min":[
				-7.485231399536133,
				9.059906005859375e-05,
				-8.336954116821289
			],
			"type":"VEC3"
		},
		{
			"bufferView":64,
			"componentType":5126,
			"count":2229,
			"type":"VEC3"
		},
		{
			"bufferView":65,
			"componentType":5126,
			"count":2229,
			"type":"VEC2"
		}
	],
	"bufferViews":[
		{
			"buffer":0,
			"byteLength":16992,
			"byteOffset":0,
			"target":34962
		},
		{
			"buffer":0,
			"byteLength":16992,
			"byteOffset":16992,
			"target":34962
		},
		{
			"buffer":0,
			"byteLength":11328,
			"byteOffset":33984,
			"target":34962
		},
		{
			"buffer":0,
			"byteLength":14940,
			"byteOffset":45312,
			"target":34963
		},
		{
			"buffer":0,
			"byteLength":288,
			"byteOffset":60252,
			"target":34962
		},
		{
			"buffer":0,
			"byteLength":288,
			"byteOffset":60540,
			"target":34962
		},
		{
			"buffer":0,
			"byteLength":192,
			"byteOffset":60828,
			"target":34962
		},
		{
			"buffer":0,
			"byteLength":144,
			"byteOffset":61020,
			"target":34963
		},
		{
			"buffer":0,
			"byteLength":26748,
			"byteOffset":61164,
			"target":34962
		},
		{
			"buffer":0,
			"byteLength":26748,
			"byteOffset":87912,
			"target":34962
		},
		{
			"buffer":0,
			"byteLength":17832,
			"byteOffset":114660,
			"target":34962
		},
		{
			"buffer":0,
			"byteLength":15336,
			"byteOffset":132492,
			"target":34963
		},
		{
			"buffer":0,
			"byteLength":16992,
			"byteOffset":147828,
			"target":34962
		},
		{
			"buffer":0,
			"byteLength":16992,
			"byteOffset":164820,
			"target":34962
		},
		{
			"buffer":0,
			"byteLength":11328,
			"byteOffset":181812,
			"target":34962
		},
		{
			"buffer":0,
			"byteLength":288,
			"byteOffset":193140,
			"target":34962
		},
		{
			"buffer":0,
			"byteLength":288,
			"byteOffset":193428,
			"target":34962
		},
		{
			"buffer":0,
			"byteLength":192,
			"byteOffset":193716,
			"target":34962
		},
		{
			"buffer":0,
			"byteLength":26748,
			"byteOffset":193908,
			"target":34962
		},
		{
			"buffer":0,
			"byteLength":26748,
			"byteOffset":220656,
			"target":34962
		},
		{
			"buffer":0,
			"byteLength":17832,
			"byteOffset":247404,
			"target":34962
		},
		{
			"buffer":0,
			"byteLength":72,
			"byteOffset":265236,
			"target":34962
		},
		{
			"buffer":0,
			"byteLength":72,
			"byteOffset":265308,
			"target":34962
		},
		{
			"buffer":0,
			"byteLength":48,
			"byteOffset":265380,
			"target":34962
		},
		{
			"buffer":0,
			"byteLength":24,
			"byteOffset":265428,
			"target":34963
		},
		{
			"buffer":0,
			"byteLength":364416,
			"byteOffset":265452,
			"target":34962
		},
		{
			"buffer":0,
			"byteLength":364416,
			"byteOffset":629868,
			"target":34962
		},
		{
			"buffer":0,
			"byteLength":242944,
			"byteOffset":994284,
			"target":34962
		},
		{
			"buffer":0,
			"byteLength":262440,
			"byteOffset":1237228,
			"target":34963
		},
		{
			"buffer":0,
			"byteLength":756,
			"byteOffset":1499668,
			"target":34962
		},
		{
			"buffer":0,
			"byteLength":756,
			"byteOffset":1500424,
			"target":34962
		},
		{
			"buffer":0,
			"byteLength":504,
			"byteOffset":1501180,
			"target":34962
		},
		{
			"buffer":0,
			"byteLength":330,
			"byteOffset":1501684,
			"target":34963
		},
		{
			"buffer":0,
			"byteLength":5904,
			"byteOffset":1502016,
			"target":34962
		},
		{
			"buffer":0,
			"byteLength":5904,
			"byteOffset":1507920,
			"target":34962
		},
		{
			"buffer":0,
			"byteLength":3936,
			"byteOffset":1513824,
			"target":34962
		},
		{
			"buffer":0,
			"byteLength":2808,
			"byteOffset":1517760,
			"target":34963
		},
		{
			"buffer":0,
			"byteLength":504,
			"byteOffset":1520568,
			"target":34962
		},
		{
			"buffer":0,
			"byteLength":504,
			"byteOffset":1521072,
			"target":34962
		},
		{
			"buffer":0,
			"byteLength":336,
			"byteOffset":1521576,
			"target":34962
		},
		{
			"buffer":0,
			"byteLength":216,
			"byteOffset":1521912,
			"target":34963
		},
		{
			"buffer":0,
			"byteLength":9768,
			"byteOffset":1522128,
			"target":34962
		},
		{
			"buffer":0,
			"byteLength":9768,
			"byteOffset":1531896,
			"target":34962
		},
		{
			"buffer":0,
			"byteLength":6512,
			"byteOffset":1541664,
			"target":34962
		},
		{
			"buffer":0,
			"byteLength":4752,
			"byteOffset":1548176,
			"target":34963
		},
		{
			"buffer":0,
			"byteLength":7128,
			"byteOffset":1552928,
			"target":34962
		},
		{
			"buffer":0,
			"byteLength":7128,
			"byteOffset":1560056,
			"target":34962
		},
		{
			"buffer":0,
			"byteLength":4752,
			"byteOffset":1567184,
			"target":34962
		},
		{
			"buffer":0,
			"byteLength":3456,
			"byteOffset":1571936,
			"target":34963
		},
		{
			"buffer":0,
			"byteLength":13536,
			"byteOffset":1575392,
			"target":34962
		},
		{
			"buffer":0,
			"byteLength":13536,
			"byteOffset":1588928,
			"target":34962
		},
		{
			"buffer":0,
			"byteLength":9024,
			"byteOffset":1602464,
			"target":34962
		},
		{
			"buffer":0,
			"byteLength":6408,
			"byteOffset":1611488,
			"target":34963
		},
		{
			"buffer":0,
			"byteLength":5184,
			"byteOffset":1617896,
			"target":34962
		},
		{
			"buffer":0,
			"byteLength":5184,
			"byteOffset":1623080,
			"target":34962
		},
		{
			"buffer":0,
			"byteLength":3456,
			"byteOffset":1628264,
			"target":34962
		},
		{
			"buffer":0,
			"byteLength":2592,
			"byteOffset":1631720,
			"target":34963
		},
		{
			"buffer":0,
			"byteLength":16992,
			"byteOffset":1634312,
			"target":34962
		},
		{
			"buffer":0,
			"byteLength":16992,
			"byteOffset":1651304,
			"target":34962
		},
		{
			"buffer":0,
			"byteLength":11328,
			"byteOffset":1668296,
			"target":34962
		},
		{
			"buffer":0,
			"byteLength":288,
			"byteOffset":1679624,
			"target":34962
		},
		{
			"buffer":0,
			"byteLength":288,
			"byteOffset":1679912,
			"target":34962
		},
		{
			"buffer":0,
			"byteLength":192,
			"byteOffset":1680200,
			"target":34962
		},
		{
			"buffer":0,
			"byteLength":26748,
			"byteOffset":1680392,
			"target":34962
		},
		{
			"buffer":0,
			"byteLength":26748,
			"byteOffset":1707140,
			"target":34962
		},
		{
			"buffer":0,
			"byteLength":17832,
			"byteOffset":1733888,
			"target":34962
		}
	],
	"buffers":[
		{
			"byteLength":1751720,
			"uri":"VRGallery02.bin"
		}
	]
}
